<svg xmlns="http://www.w3.org/2000/svg" xmlns:svgjs="http://svgjs.com/svgjs" xmlns:xlink="http://www.w3.org/1999/xlink" width="288" height="288"><svg xmlns="http://www.w3.org/2000/svg" width="288" height="288" fill="none" viewBox="0 0 24 21"><path stroke="#a0a0a2" stroke-linecap="round" stroke-linejoin="round" stroke-width="2" d="M1.89964 5.07419C2.16348 4.43723 2.5502 3.85847 3.03771 3.37096C3.52522 2.88345 4.10398 2.49673 4.74094 2.23289C5.37791 1.96905 6.0606 1.83325 6.75005 1.83325C7.43949 1.83325 8.12219 1.96905 8.75915 2.23289C9.39611 2.49673 9.97487 2.88345 10.4624 3.37096L12 4.90863L13.5377 3.37096C14.5223 2.38639 15.8577 1.83327 17.25 1.83327C18.6424 1.83327 19.9778 2.38639 20.9624 3.37096C21.947 4.35554 22.5001 5.6909 22.5001 7.0833C22.5001 8.47569 21.947 9.81106 20.9624 10.7956L12 19.758L3.03771 10.7956C2.5502 10.3081 2.16348 9.72936 1.89964 9.0924C1.6358 8.45544 1.5 7.77274 1.5 7.0833C1.5 6.39385 1.6358 5.71116 1.89964 5.07419Z" class="colorStroke000 svgStroke"/></svg></svg>