<svg xmlns="http://www.w3.org/2000/svg" xmlns:svgjs="http://svgjs.com/svgjs" xmlns:xlink="http://www.w3.org/1999/xlink" width="288" height="288"><svg xmlns="http://www.w3.org/2000/svg" width="288" height="288" fill="none" viewBox="0 0 23 23"><path stroke="#000" stroke-linecap="round" stroke-linejoin="round" stroke-width="2.5" d="M21.5 21.5L14.8889 14.8888M17.0926 9.37959C17.0926 10.3925 16.8931 11.3954 16.5055 12.3312C16.1179 13.267 15.5498 14.1173 14.8335 14.8335C14.1173 15.5497 13.2671 16.1178 12.3313 16.5054C11.3955 16.8931 10.3925 17.0926 9.37965 17.0926C8.36677 17.0926 7.36381 16.8931 6.42803 16.5054C5.49225 16.1178 4.64198 15.5497 3.92576 14.8335C3.20955 14.1173 2.64141 13.267 2.2538 12.3312C1.86619 11.3954 1.66669 10.3925 1.66669 9.37959C1.66669 7.33398 2.4793 5.37216 3.92576 3.9257C5.37222 2.47924 7.33404 1.66663 9.37965 1.66663C11.4253 1.66663 13.3871 2.47924 14.8335 3.9257C16.28 5.37216 17.0926 7.33398 17.0926 9.37959Z" class="colorStroke774B53 svgStroke"/></svg></svg>